<mxfile host="app.diagrams.net" modified="2024-03-26T20:49:11.809Z" agent="Mozilla/5.0 (Macintosh; Intel Mac OS X 10_15_7) AppleWebKit/537.36 (KHTML, like Gecko) Chrome/122.0.0.0 Safari/537.36" etag="GRe88bgt1cuKu_8sjjth" version="24.0.7" type="github">
  <diagram name="Page-1" id="edf60f1a-56cd-e834-aa8a-f176f3a09ee4">
    <mxGraphModel dx="1306" dy="730" grid="1" gridSize="10" guides="1" tooltips="1" connect="1" arrows="1" fold="1" page="1" pageScale="1" pageWidth="1100" pageHeight="850" background="none" math="0" shadow="0">
      <root>
        <mxCell id="0" />
        <mxCell id="1" parent="0" />
        <mxCell id="DhFFh8tWOYYWmh8P85Gl-33" value="" style="edgeStyle=orthogonalEdgeStyle;rounded=0;orthogonalLoop=1;jettySize=auto;html=1;" parent="1" source="DhFFh8tWOYYWmh8P85Gl-1" target="DhFFh8tWOYYWmh8P85Gl-7" edge="1">
          <mxGeometry relative="1" as="geometry" />
        </mxCell>
        <mxCell id="DhFFh8tWOYYWmh8P85Gl-1" value="Users" style="image;aspect=fixed;perimeter=ellipsePerimeter;html=1;align=center;shadow=0;dashed=0;spacingTop=3;image=img/lib/active_directory/user_accounts.svg;" parent="1" vertex="1">
          <mxGeometry x="380" y="90" width="40" height="38.8" as="geometry" />
        </mxCell>
        <mxCell id="DhFFh8tWOYYWmh8P85Gl-34" value="" style="edgeStyle=orthogonalEdgeStyle;rounded=0;orthogonalLoop=1;jettySize=auto;html=1;" parent="1" source="DhFFh8tWOYYWmh8P85Gl-2" target="DhFFh8tWOYYWmh8P85Gl-7" edge="1">
          <mxGeometry relative="1" as="geometry" />
        </mxCell>
        <mxCell id="DhFFh8tWOYYWmh8P85Gl-42" style="edgeStyle=orthogonalEdgeStyle;rounded=0;orthogonalLoop=1;jettySize=auto;html=1;" parent="1" target="DhFFh8tWOYYWmh8P85Gl-31" edge="1">
          <mxGeometry relative="1" as="geometry">
            <mxPoint x="480" y="122.80000000000007" as="sourcePoint" />
            <mxPoint x="620" y="214" as="targetPoint" />
            <Array as="points">
              <mxPoint x="480" y="174" />
              <mxPoint x="620" y="174" />
            </Array>
          </mxGeometry>
        </mxCell>
        <mxCell id="DhFFh8tWOYYWmh8P85Gl-2" value="Families" style="image;aspect=fixed;perimeter=ellipsePerimeter;html=1;align=center;shadow=0;dashed=0;spacingTop=3;image=img/lib/active_directory/user_accounts.svg;" parent="1" vertex="1">
          <mxGeometry x="460" y="90" width="40" height="38.8" as="geometry" />
        </mxCell>
        <mxCell id="DhFFh8tWOYYWmh8P85Gl-35" value="" style="edgeStyle=orthogonalEdgeStyle;rounded=0;orthogonalLoop=1;jettySize=auto;html=1;" parent="1" source="DhFFh8tWOYYWmh8P85Gl-3" target="DhFFh8tWOYYWmh8P85Gl-31" edge="1">
          <mxGeometry relative="1" as="geometry" />
        </mxCell>
        <mxCell id="DhFFh8tWOYYWmh8P85Gl-3" value="Activists" style="image;aspect=fixed;perimeter=ellipsePerimeter;html=1;align=center;shadow=0;dashed=0;spacingTop=3;image=img/lib/active_directory/user_accounts.svg;" parent="1" vertex="1">
          <mxGeometry x="540" y="90.00000000000006" width="40" height="38.8" as="geometry" />
        </mxCell>
        <mxCell id="DhFFh8tWOYYWmh8P85Gl-36" value="" style="edgeStyle=orthogonalEdgeStyle;rounded=0;orthogonalLoop=1;jettySize=auto;html=1;" parent="1" source="DhFFh8tWOYYWmh8P85Gl-4" target="DhFFh8tWOYYWmh8P85Gl-31" edge="1">
          <mxGeometry relative="1" as="geometry">
            <Array as="points">
              <mxPoint x="640" y="174" />
              <mxPoint x="620" y="174" />
            </Array>
          </mxGeometry>
        </mxCell>
        <mxCell id="DhFFh8tWOYYWmh8P85Gl-4" value="Administrators" style="image;aspect=fixed;perimeter=ellipsePerimeter;html=1;align=center;shadow=0;dashed=0;spacingTop=3;image=img/lib/active_directory/user_accounts.svg;" parent="1" vertex="1">
          <mxGeometry x="620" y="90" width="40" height="38.8" as="geometry" />
        </mxCell>
        <mxCell id="DhFFh8tWOYYWmh8P85Gl-10" value="" style="edgeStyle=orthogonalEdgeStyle;rounded=0;orthogonalLoop=1;jettySize=auto;html=1;" parent="1" source="DhFFh8tWOYYWmh8P85Gl-7" target="DhFFh8tWOYYWmh8P85Gl-9" edge="1">
          <mxGeometry relative="1" as="geometry" />
        </mxCell>
        <mxCell id="DhFFh8tWOYYWmh8P85Gl-7" value="Submit a new Memorial" style="whiteSpace=wrap;html=1;rounded=0;shadow=1;labelBackgroundColor=none;strokeWidth=1;fontFamily=Verdana;fontSize=8;align=center;spacing=6;" parent="1" vertex="1">
          <mxGeometry x="360" y="220" width="120" height="40" as="geometry" />
        </mxCell>
        <mxCell id="DhFFh8tWOYYWmh8P85Gl-26" value="" style="edgeStyle=orthogonalEdgeStyle;rounded=0;orthogonalLoop=1;jettySize=auto;html=1;" parent="1" source="DhFFh8tWOYYWmh8P85Gl-9" target="DhFFh8tWOYYWmh8P85Gl-22" edge="1">
          <mxGeometry relative="1" as="geometry" />
        </mxCell>
        <mxCell id="DhFFh8tWOYYWmh8P85Gl-9" value="Start Memorial Approval Workflow" style="whiteSpace=wrap;html=1;rounded=0;shadow=1;labelBackgroundColor=none;strokeWidth=1;fontFamily=Verdana;fontSize=8;align=center;spacing=6;" parent="1" vertex="1">
          <mxGeometry x="460" y="300" width="120" height="40" as="geometry" />
        </mxCell>
        <mxCell id="DhFFh8tWOYYWmh8P85Gl-20" value="Yes" style="edgeStyle=orthogonalEdgeStyle;rounded=0;html=1;labelBackgroundColor=none;startSize=5;endArrow=classicThin;endFill=1;endSize=5;jettySize=auto;orthogonalLoop=1;strokeWidth=1;fontFamily=Verdana;fontSize=8" parent="1" source="DhFFh8tWOYYWmh8P85Gl-22" target="DhFFh8tWOYYWmh8P85Gl-24" edge="1">
          <mxGeometry x="-0.6667" y="10" relative="1" as="geometry">
            <mxPoint as="offset" />
          </mxGeometry>
        </mxCell>
        <mxCell id="DhFFh8tWOYYWmh8P85Gl-21" value="No" style="edgeStyle=orthogonalEdgeStyle;rounded=0;html=1;labelBackgroundColor=none;startSize=5;endArrow=classicThin;endFill=1;endSize=5;jettySize=auto;orthogonalLoop=1;strokeWidth=1;fontFamily=Verdana;fontSize=8" parent="1" source="DhFFh8tWOYYWmh8P85Gl-22" target="DhFFh8tWOYYWmh8P85Gl-25" edge="1">
          <mxGeometry x="-0.5" y="-10" relative="1" as="geometry">
            <mxPoint as="offset" />
          </mxGeometry>
        </mxCell>
        <mxCell id="DhFFh8tWOYYWmh8P85Gl-22" value="Is there an&lt;div&gt;&amp;nbsp;issue&amp;nbsp;&lt;span style=&quot;background-color: initial;&quot;&gt;with the data submitted?&lt;/span&gt;&lt;/div&gt;" style="rhombus;whiteSpace=wrap;html=1;rounded=0;shadow=1;labelBackgroundColor=none;strokeWidth=1;fontFamily=Verdana;fontSize=8;align=center;" parent="1" vertex="1">
          <mxGeometry x="470" y="380" width="100" height="60" as="geometry" />
        </mxCell>
        <mxCell id="DhFFh8tWOYYWmh8P85Gl-23" style="edgeStyle=orthogonalEdgeStyle;rounded=0;html=1;labelBackgroundColor=none;startSize=5;endArrow=classicThin;endFill=1;endSize=5;jettySize=auto;orthogonalLoop=1;strokeWidth=1;fontFamily=Verdana;fontSize=8" parent="1" source="DhFFh8tWOYYWmh8P85Gl-24" target="DhFFh8tWOYYWmh8P85Gl-25" edge="1">
          <mxGeometry relative="1" as="geometry">
            <Array as="points">
              <mxPoint x="690" y="460" />
              <mxPoint x="520" y="460" />
            </Array>
          </mxGeometry>
        </mxCell>
        <mxCell id="DhFFh8tWOYYWmh8P85Gl-24" value="Request changes from the Memorial submitter" style="whiteSpace=wrap;html=1;rounded=0;shadow=1;labelBackgroundColor=none;strokeWidth=1;fontFamily=Verdana;fontSize=8;align=center;" parent="1" vertex="1">
          <mxGeometry x="630" y="390" width="120" height="40" as="geometry" />
        </mxCell>
        <mxCell id="DhFFh8tWOYYWmh8P85Gl-30" value="" style="edgeStyle=orthogonalEdgeStyle;rounded=0;orthogonalLoop=1;jettySize=auto;html=1;" parent="1" source="DhFFh8tWOYYWmh8P85Gl-25" target="DhFFh8tWOYYWmh8P85Gl-28" edge="1">
          <mxGeometry relative="1" as="geometry" />
        </mxCell>
        <mxCell id="DhFFh8tWOYYWmh8P85Gl-25" value="Change status to&lt;div&gt;Approved&lt;/div&gt;" style="whiteSpace=wrap;html=1;rounded=0;shadow=1;labelBackgroundColor=none;strokeWidth=1;fontFamily=Verdana;fontSize=8;align=center;" parent="1" vertex="1">
          <mxGeometry x="460" y="480" width="120" height="40" as="geometry" />
        </mxCell>
        <mxCell id="DhFFh8tWOYYWmh8P85Gl-27" style="edgeStyle=orthogonalEdgeStyle;rounded=0;html=1;labelBackgroundColor=none;startSize=5;endArrow=classicThin;endFill=1;endSize=5;jettySize=auto;orthogonalLoop=1;strokeWidth=1;fontFamily=Verdana;fontSize=8" parent="1" source="DhFFh8tWOYYWmh8P85Gl-28" target="DhFFh8tWOYYWmh8P85Gl-29" edge="1">
          <mxGeometry relative="1" as="geometry" />
        </mxCell>
        <mxCell id="DhFFh8tWOYYWmh8P85Gl-28" value="Memorial is now published and live on the website." style="whiteSpace=wrap;html=1;rounded=0;shadow=1;labelBackgroundColor=none;strokeWidth=1;fontFamily=Verdana;fontSize=8;align=center;" parent="1" vertex="1">
          <mxGeometry x="460" y="560" width="120" height="40" as="geometry" />
        </mxCell>
        <mxCell id="DhFFh8tWOYYWmh8P85Gl-29" value="End" style="strokeWidth=1;html=1;shape=mxgraph.flowchart.terminator;whiteSpace=wrap;rounded=0;shadow=1;labelBackgroundColor=none;fontFamily=Verdana;fontSize=8;align=center;" parent="1" vertex="1">
          <mxGeometry x="490" y="640" width="60" height="30" as="geometry" />
        </mxCell>
        <mxCell id="DhFFh8tWOYYWmh8P85Gl-32" value="" style="edgeStyle=orthogonalEdgeStyle;rounded=0;orthogonalLoop=1;jettySize=auto;html=1;" parent="1" source="DhFFh8tWOYYWmh8P85Gl-31" target="DhFFh8tWOYYWmh8P85Gl-9" edge="1">
          <mxGeometry relative="1" as="geometry" />
        </mxCell>
        <mxCell id="DhFFh8tWOYYWmh8P85Gl-31" value="Edit an existing Published Memorial.&amp;nbsp;" style="whiteSpace=wrap;html=1;rounded=0;shadow=1;labelBackgroundColor=none;strokeWidth=1;fontFamily=Verdana;fontSize=8;align=center;spacing=6;" parent="1" vertex="1">
          <mxGeometry x="560" y="220" width="120" height="40" as="geometry" />
        </mxCell>
      </root>
    </mxGraphModel>
  </diagram>
</mxfile>
